<svg width="7" height="7" viewBox="0 0 7 7" fill="none" xmlns="http://www.w3.org/2000/svg">
<path d="M6.19426 1.45151L4.02693 3.62311C3.94316 3.70708 3.84021 3.76939 3.72696 3.80466L3.26643 3.95882C3.15714 3.98968 3.04159 3.99085 2.9317 3.96219C2.8218 3.93353 2.72154 3.87609 2.64123 3.79579C2.56093 3.71548 2.50349 3.61522 2.47483 3.50532C2.44617 3.39543 2.44734 3.27988 2.4782 3.17058L2.63236 2.71005C2.66752 2.59684 2.72971 2.49389 2.81355 2.41009L4.98515 0.242401C5.00506 0.222517 5.01862 0.197177 5.02412 0.169586C5.02963 0.141994 5.02682 0.11339 5.01607 0.087391C5.00532 0.0613919 4.98709 0.0391658 4.96371 0.0235233C4.94032 0.00788084 4.91282 -0.000475248 4.88469 -0.000488281H1.17396C0.909875 -0.000488281 0.656605 0.10442 0.469868 0.291157C0.283131 0.477894 0.178223 0.731164 0.178223 0.99525V5.2627C0.178223 5.52679 0.283131 5.78006 0.469868 5.9668C0.656605 6.15353 0.909875 6.25844 1.17396 6.25844H5.44141C5.7055 6.25844 5.95877 6.15353 6.14551 5.9668C6.33224 5.78006 6.43715 5.52679 6.43715 5.2627V1.55197C6.43714 1.52384 6.42878 1.49634 6.41314 1.47295C6.3975 1.44957 6.37527 1.43135 6.34927 1.42059C6.32327 1.40984 6.29467 1.40704 6.26708 1.41254C6.23949 1.41804 6.21415 1.43161 6.19426 1.45151Z" fill="black"/>
</svg>
